<?xml version="1.0" encoding="UTF-8"?>
<!DOCTYPE svg PUBLIC "-//W3C//DTD SVG 1.1//EN" "http://www.w3.org/Graphics/SVG/1.1/DTD/svg11.dtd">
<!-- Creator: CorelDRAW 2020 (64 Bit) -->
<svg xmlns="http://www.w3.org/2000/svg" xml:space="preserve" width="6.1877mm" height="6.1889mm" version="1.1" style="shape-rendering:geometricPrecision; text-rendering:geometricPrecision; image-rendering:optimizeQuality; fill-rule:evenodd; clip-rule:evenodd"
viewBox="0 0 70.67 70.69"
 xmlns:xlink="http://www.w3.org/1999/xlink"
 xmlns:xodm="http://www.corel.com/coreldraw/odm/2003">
 <defs>
  <style type="text/css">
   <![CDATA[
    .fil0 {fill:#9BC4E8;fill-rule:nonzero}
   ]]>
  </style>
 </defs>
 <g id="Camada_x0020_1">
  <metadata id="CorelCorpID_0Corel-Layer"/>
  <g id="_1620106256016">
   <path class="fil0" d="M70.49 20.78c-0.17,-3.76 -0.77,-6.34 -1.64,-8.58 -0.9,-2.37 -2.28,-4.5 -4.09,-6.27 -1.77,-1.8 -3.91,-3.19 -6.26,-4.07 -2.25,-0.87 -4.82,-1.48 -8.58,-1.64 -3.78,-0.18 -4.99,-0.22 -14.58,-0.22 -9.6,0 -10.8,0.04 -14.57,0.21 -3.76,0.17 -6.34,0.77 -8.57,1.64 -2.38,0.9 -4.5,2.28 -6.27,4.09 -1.79,1.77 -3.19,3.91 -4.07,6.26 -0.87,2.25 -1.48,4.82 -1.64,8.57 -0.18,3.78 -0.22,4.99 -0.22,14.58 0,9.6 0.04,10.8 0.21,14.57 0.17,3.76 0.77,6.34 1.64,8.58 0.9,2.38 2.29,4.5 4.09,6.27 1.77,1.8 3.91,3.19 6.26,4.07 2.25,0.87 4.82,1.48 8.58,1.64 3.77,0.17 4.97,0.21 14.57,0.21 9.6,0 10.8,-0.04 14.57,-0.21 3.76,-0.17 6.34,-0.77 8.58,-1.64 4.75,-1.84 8.51,-5.59 10.34,-10.34 0.87,-2.25 1.48,-4.82 1.64,-8.58 0.17,-3.77 0.21,-4.97 0.21,-14.57 0,-9.6 -0.01,-10.8 -0.18,-14.57l0 0zm-6.37 28.86c-0.15,3.45 -0.73,5.32 -1.22,6.56 -1.19,3.08 -3.63,5.52 -6.71,6.71 -1.24,0.48 -3.12,1.06 -6.56,1.22 -3.73,0.17 -4.85,0.21 -14.28,0.21 -9.43,0 -10.56,-0.04 -14.28,-0.21 -3.45,-0.15 -5.32,-0.73 -6.56,-1.22 -1.53,-0.57 -2.93,-1.46 -4.06,-2.64 -1.17,-1.15 -2.07,-2.53 -2.64,-4.06 -0.48,-1.24 -1.06,-3.12 -1.22,-6.56 -0.17,-3.73 -0.21,-4.85 -0.21,-14.28 0,-9.43 0.04,-10.56 0.21,-14.28 0.15,-3.45 0.73,-5.32 1.22,-6.56 0.57,-1.53 1.46,-2.93 2.65,-4.06 1.15,-1.17 2.53,-2.07 4.06,-2.64 1.24,-0.48 3.12,-1.06 6.56,-1.22 3.73,-0.17 4.85,-0.21 14.28,-0.21 9.45,0 10.56,0.04 14.28,0.21 3.45,0.15 5.32,0.73 6.56,1.22 1.53,0.57 2.93,1.46 4.06,2.64 1.17,1.15 2.07,2.53 2.64,4.06 0.48,1.24 1.06,3.12 1.22,6.56 0.17,3.73 0.21,4.85 0.21,14.28 0,9.43 -0.04,10.54 -0.21,14.26l0 0zm0 0z"/>
   <path class="fil0" d="M35.35 17.19c-10.03,0 -18.16,8.13 -18.16,18.16 0,10.02 8.13,18.16 18.16,18.16 10.02,0 18.16,-8.13 18.16,-18.16 0,-10.03 -8.13,-18.16 -18.16,-18.16zm0 29.94c-6.5,0 -11.78,-5.28 -11.78,-11.78 0,-6.5 5.27,-11.78 11.78,-11.78 6.5,0 11.78,5.27 11.78,11.78 0,6.5 -5.28,11.78 -11.78,11.78zm0 0z"/>
   <path class="fil0" d="M58.47 16.47c0,2.34 -1.9,4.24 -4.24,4.24 -2.34,0 -4.24,-1.9 -4.24,-4.24 0,-2.34 1.9,-4.24 4.24,-4.24 2.34,0 4.24,1.9 4.24,4.24zm0 0z"/>
  </g>
 </g>
</svg>
