<?xml version="1.0" encoding="UTF-8"?>
<!DOCTYPE svg PUBLIC "-//W3C//DTD SVG 1.1//EN" "http://www.w3.org/Graphics/SVG/1.1/DTD/svg11.dtd">
<!-- Creator: CorelDRAW 2020 (64 Bit) -->
<svg xmlns="http://www.w3.org/2000/svg" xml:space="preserve" width="5.488mm" height="5.4881mm" version="1.1" style="shape-rendering:geometricPrecision; text-rendering:geometricPrecision; image-rendering:optimizeQuality; fill-rule:evenodd; clip-rule:evenodd"
viewBox="0 0 54.46 54.46"
 xmlns:xlink="http://www.w3.org/1999/xlink"
 xmlns:xodm="http://www.corel.com/coreldraw/odm/2003">
 <defs>
  <style type="text/css">
   <![CDATA[
    .fil0 {fill:#9BC4E8;fill-rule:nonzero}
   ]]>
  </style>
 </defs>
 <g id="Camada_x0020_1">
  <metadata id="CorelCorpID_0Corel-Layer"/>
  <path class="fil0" d="M39.73 32.47l-0.02 0.17c-4.99,-2.49 -5.51,-2.82 -6.16,-1.85 -0.45,0.67 -1.75,2.19 -2.14,2.64 -0.4,0.44 -0.79,0.48 -1.47,0.17 -0.68,-0.34 -2.87,-1.06 -5.45,-3.37 -2.01,-1.8 -3.37,-4.02 -3.77,-4.7 -0.67,-1.15 0.73,-1.31 1.99,-3.71 0.23,-0.48 0.11,-0.85 -0.06,-1.19 -0.17,-0.34 -1.52,-3.68 -2.09,-5.01 -0.54,-1.32 -1.11,-1.16 -1.53,-1.16 -1.31,-0.11 -2.26,-0.1 -3.1,0.78 -3.66,4.03 -2.74,8.18 0.39,12.59 6.16,8.06 9.44,9.54 15.44,11.6 1.62,0.52 3.1,0.44 4.27,0.27 1.3,-0.21 4.01,-1.64 4.57,-3.24 0.58,-1.6 0.58,-2.93 0.41,-3.23 -0.17,-0.31 -0.61,-0.48 -1.29,-0.78l0 0zm6.84 -24.64c-17.45,-16.87 -46.32,-4.63 -46.33,19.16 0,4.76 1.25,9.39 3.62,13.49l-3.85 13.98 14.38 -3.75c17.94,9.69 40.08,-3.18 40.09,-23.71 0,-7.21 -2.81,-13.99 -7.93,-19.09l0.03 -0.09zm3.36 19.1c-0.01,17.32 -19.03,28.14 -34.07,19.3l-0.82 -0.49 -8.51 2.21 2.28 -8.27 -0.54 -0.85c-9.36,-14.9 1.39,-34.37 19.12,-34.37 6.02,0 11.68,2.35 15.93,6.6 4.26,4.22 6.6,9.87 6.6,15.86z"/>
 </g>
</svg>
